<?xml version="1.0" encoding="UTF-8" standalone="no"?>
<!-- Created with Inkscape (http://www.inkscape.org/) -->

<svg
   xmlns:dc="http://purl.org/dc/elements/1.1/"
   xmlns:cc="http://creativecommons.org/ns#"
   xmlns:rdf="http://www.w3.org/1999/02/22-rdf-syntax-ns#"
   xmlns:svg="http://www.w3.org/2000/svg"
   xmlns="http://www.w3.org/2000/svg"
   xmlns:sodipodi="http://sodipodi.sourceforge.net/DTD/sodipodi-0.dtd"
   xmlns:inkscape="http://www.inkscape.org/namespaces/inkscape"
   width="500"
   height="500"
   id="svg3011"
   version="1.1"
   inkscape:version="0.48.5 r10040"
   sodipodi:docname="materail-logo.svg">
  <defs
     id="defs3013" />
  <sodipodi:namedview
     id="base"
     pagecolor="#fb8221"
     bordercolor="#666666"
     borderopacity="1.0"
     inkscape:pageopacity="0"
     inkscape:pageshadow="2"
     inkscape:zoom="0.49497475"
     inkscape:cx="234.83073"
     inkscape:cy="431.65626"
     inkscape:document-units="px"
     inkscape:current-layer="layer1"
     showgrid="false"
     inkscape:window-width="1280"
     inkscape:window-height="741"
     inkscape:window-x="-8"
     inkscape:window-y="-8"
     inkscape:window-maximized="1" />
  <metadata
     id="metadata3016">
    <rdf:RDF>
      <cc:Work
         rdf:about="">
        <dc:format>image/svg+xml</dc:format>
        <dc:type
           rdf:resource="http://purl.org/dc/dcmitype/StillImage" />
        <dc:title></dc:title>
      </cc:Work>
    </rdf:RDF>
  </metadata>
  <g
     inkscape:label="Livello 1"
     inkscape:groupmode="layer"
     id="layer1"
     transform="translate(0,-552.36218)">
    <rect
       style="fill:#fb8521;fill-opacity:1;stroke:none"
       id="rect3873"
       width="500"
       height="500"
       x="0"
       y="552.36212" />
    <polyline
       points="0,7.75 13.625,10.333 23.021,0 59.751,0 69.5,10.333 83,7.75 73.834,33.844    69.627,66.229 50,90 32.5,90 12.625,66.166 8.667,34.083  "
       id="LOGObackground"
       style="fill:#ffffff;fill-opacity:0.94117647"
       transform="matrix(4.8192771,0,0,4.8192771,50,585.49471)" />
    <polygon
       style="fill:#fb8521;fill-opacity:1"
       points="13.167,32.417 9.751,18 27.667,21.583 35.751,40.833 "
       id="polygon6"
       transform="matrix(4.8192771,0,0,4.8192771,50,585.49471)" />
    <polygon
       style="fill:#fb8521;fill-opacity:1"
       points="69.335,32.417 72.751,18 54.835,21.583 46.751,40.833 "
       id="polygon8"
       transform="matrix(4.8192771,0,0,4.8192771,50,585.49471)" />
    <polygon
       style="fill:#fb8521;fill-opacity:1"
       points="16.917,18 24.667,7.75 34.417,7.75 28.334,20.25 "
       id="polygon10"
       transform="matrix(4.8192771,0,0,4.8192771,50,585.49471)" />
    <polygon
       style="fill:#fb8521;fill-opacity:1"
       points="65.417,18 57.667,7.75 47.917,7.75 54,20.25 "
       id="polygon12"
       transform="matrix(4.8192771,0,0,4.8192771,50,585.49471)" />
    <polygon
       style="fill:#fb8521;fill-opacity:1"
       points="44.625,43.958 47.042,59.938 35.042,59.938 37.761,43.938 29.667,22.906 34.917,7.75 47.334,7.75 52.698,22.906 "
       id="polygon14"
       transform="matrix(4.8192771,0,0,4.8192771,50,585.49471)" />
    <polygon
       style="fill:#fb8521;fill-opacity:1"
       points="18.709,36.167 18.709,42.958 26.626,47.209 26.626,64 13.625,52.875 13.625,34.083 "
       id="polygon16"
       transform="matrix(4.8192771,0,0,4.8192771,50,585.49471)" />
    <polygon
       style="fill:#fb8521;fill-opacity:1"
       points="63.543,36.167 63.543,42.958 55.626,47.209 55.626,64 68.627,52.875 68.627,34.083 "
       id="polygon18"
       transform="matrix(4.8192771,0,0,4.8192771,50,585.49471)" />
    <polygon
       style="fill:#fb8521;fill-opacity:1"
       points="53.791,48 49.708,41.125 46.751,42.667 46.751,45.562 48.604,60.969 44.637,65 41.183,65.031 37.729,65 33.761,60.969 35.614,45.562 35.614,42.667 32.657,41.125 28.574,48 28.574,72.969 32.792,69.094 41.183,69 49.573,69.094 53.791,72.969 "
       id="polygon20"
       transform="matrix(4.8192771,0,0,4.8192771,50,585.49471)" />
    <polygon
       style="fill:#fb8521;fill-opacity:1"
       points="50.667,77.938 46.667,81.917 35.625,81.917 31.75,77.938 35.625,73.959 46.667,73.959 "
       id="polygon22"
       transform="matrix(4.8192771,0,0,4.8192771,50,585.49471)" />
    <polygon
       style="opacity:0.50000000000000000;fill:#fb8521;fill-opacity:1"
       enable-background="new    "
       points="19.417,65.959 19.417,60.5 26.626,65.209 26.626,73.959 "
       id="polygon24"
       transform="matrix(4.8192771,0,0,4.8192771,50,585.49471)" />
    <polygon
       style="opacity:0.50000000000000000;fill:#fb8521;fill-opacity:1"
       enable-background="new    "
       points="62.626,65.959 62.626,60.5 55.417,65.209 55.417,73.959 "
       id="polygon26"
       transform="matrix(4.8192771,0,0,4.8192771,50,585.49471)" />
    <polygon
       style="opacity:0.50000000000000000;fill:#fb8521;fill-opacity:1"
       enable-background="new    "
       points="33.698,72.969 30.729,77.031 28.574,75.906 33.625,70.834 48.792,70.834 53.791,75.906 51.667,77.031 48.667,72.969 "
       id="polygon28"
       transform="matrix(4.8192771,0,0,4.8192771,50,585.49471)" />
  </g>
</svg>
